<svg xmlns="http://www.w3.org/2000/svg" xmlns:xlink="http://www.w3.org/1999/xlink" xmlns:inkscape="http://www.inkscape.org/namespaces/inkscape" version="1.1" width="497.049" height="281.463" viewBox="0 0 497.049 281.463">
<defs>
<clipPath id="clip_0">
<path transform="matrix(1,0,0,-1,0,281.463)" d="M0 281.463H497.049V0H0Z"/>
</clipPath>
</defs>
<g inkscape:groupmode="layer" inkscape:label="Layer 1">
<g clip-path="url(#clip_0)">
<path transform="matrix(1,0,0,-1,276.4926,123.36511)" d="M0 0C-.623-14.262-12.127-25.911-26.381-26.702-36.23-27.248-45.063-22.675-50.462-15.401-50.807-14.937-51.165-14.483-51.529-14.034-54.631-10.216-56.493-5.346-56.493-.044-56.493 .659-56.459 1.351-56.397 2.038-56.245 3.68-55.913 5.266-55.418 6.785-54.411 9.918-52.718 12.748-50.524 15.099-46.604 19.301-41.069 21.978-34.904 22.147H-34.87C-29.127 22.445-23.873 24.594-19.688 28.002-7.904 24.342 .573 13.1 0 0M-41.844 61.362-33.458 57.772-33.187 51.587-40.879 45.915-46.973 48.269-47.697 56.625ZM-41.452 67.224C-40.126 67.503-38.751 67.65-37.341 67.65-33.762 67.65-30.404 66.704-27.504 65.047L-27.666 60.486-32.884 59.099-41.452 62.689ZM-25.523 39.55-31.165 34.391-40.064 38.856V44.739L-32.282 50.35-26.248 47.906ZM-22.989 53.759-25.644 49.475H-26.61C-26.61 49.475-25.161 51.708-25.221 53.638-25.283 55.569-27.967 58.857-27.967 58.857L-27.092 59.099ZM-26.079 64.15C-22.044 61.369-19.089 57.132-17.969 52.2L-21.542 54.181-26.248 60.095ZM-17.646 50.387V50.386L-17.477 50.29-17.646 50.386C-17.534 49.535-17.477 48.666-17.477 47.784-17.477 44.227-18.412 40.888-20.05 38L-24.105 39.731-24.799 48.238-21.692 52.703ZM-14.868 33.149C-11.524 37.85-9.689 43.693-10.075 49.99-10.884 63.201-21.664 73.853-34.882 74.526-49.648 75.277-61.909 63.817-62.455 49.35V2.038H-62.444C-62.45 1.779-62.455 1.515-62.455 1.25-62.455-18.328-46.053-34.153-26.264-33.196-8.804-32.351 5.407-18.316 6.455-.867 7.373 14.412-1.718 27.734-14.868 33.149" fill="#2b4859"/>
<path transform="matrix(1,0,0,-1,242.3461,111.00041)" d="M0 0C-.255 .249-.548 .534-.853 .832-.538 1.117-.228 1.399 .079 1.678 .315 1.423 .6 1.116 .859 .836 .615 .599 .31 .302 0 0" fill="#ffffff"/>
</g>
<text fill="#231f20" xml:space="preserve" transform="matrix(1 0 -0 1 0 281.463)" font-size="38.1994" font-family="NexaBold" font-weight="bold"><tspan y="-85.1182" x="141.7969 167.8871 196.88045 222.66504 248.67884 271.02549 295.62974 322.2929 347.54273">BARCLAYS </tspan></text>
<text fill="#2b4859" xml:space="preserve" transform="matrix(1 0 -0 1 0 281.463)" font-size="20.1255" font-family="Poppins"><tspan y="-60.1553" x="190.0205 201.53227 212.88306 228.74195 240.55562 251.02088 262.53266 268.04704 281.71226 295.0152">SPORTS HUB</tspan></text>
</g>
</svg>
